# xmcd
#
# Track frame offsets:
#	150
#	14721
#	28880
#	42813
#	53132
#	68611
#	85953
#	98685
#	113680
#
# Disc length: 1794 seconds
#
# Revision: 1
# Processed by: cddbd v1.5.2PL0 Copyright (c) Steve Scherf et al.
# Submitted via: audiograbber 1.83.01
#
DISCID=6d070009
DTITLE=Rick Johnson - Anniversary Special
DYEAR=1900
DGENRE=Country
TTITLE0=Arkansas Traveler
TTITLE1=Back to the Country
TTITLE2=Crystal Chandeliers
TTITLE3=Auctioneer
TTITLE4=The Devil Went Down to Georgia
TTITLE5=McDowells Reel
TTITLE6=House of Memories
TTITLE7=Louisiana Man
TTITLE8=Orange Blossom Special
EXTD=
EXTT0=
EXTT1=
EXTT2=
EXTT3=
EXTT4=
EXTT5=
EXTT6=
EXTT7=
EXTT8=
PLAYORDER=
